<svg width="1600" height="1200" viewBox="0 0 1600 1200" fill="none" xmlns="http://www.w3.org/2000/svg">
  <rect width="1600" height="1200" rx="56" fill="url(#bg)"/>
  <circle cx="1260" cy="188" r="170" fill="#DFF5FF"/>
  <circle cx="300" cy="220" r="220" fill="#E3ECFF"/>
  <rect x="140" y="140" width="1320" height="920" rx="44" fill="white" fill-opacity="0.9"/>
  <rect x="184" y="184" width="1232" height="832" rx="36" fill="#F8FBFF"/>
  <rect x="228" y="228" width="220" height="744" rx="30" fill="#EEF4FF"/>
  <rect x="490" y="228" width="566" height="744" rx="30" fill="white"/>
  <rect x="1092" y="228" width="280" height="744" rx="30" fill="#F3F8FF"/>
  <rect x="268" y="274" width="92" height="92" rx="24" fill="#2563FF"/>
  <path d="M296 322H333V337H348V374H333V389H296V374H281V337H296V322Z" fill="white"/>
  <rect x="268" y="414" width="132" height="18" rx="9" fill="#B8CFFF"/>
  <rect x="268" y="452" width="108" height="18" rx="9" fill="#D6E3FF"/>
  <rect x="268" y="528" width="140" height="52" rx="18" fill="white"/>
  <rect x="288" y="548" width="86" height="12" rx="6" fill="#B8CFFF"/>
  <rect x="268" y="610" width="140" height="52" rx="18" fill="#0F172A"/>
  <rect x="288" y="630" width="70" height="12" rx="6" fill="white" fill-opacity="0.7"/>
  <rect x="540" y="280" width="208" height="20" rx="10" fill="#C3D7FF"/>
  <rect x="540" y="324" width="304" height="20" rx="10" fill="#E1EAFF"/>
  <rect x="540" y="386" width="468" height="416" rx="28" fill="#F6FAFF"/>
  <rect x="572" y="422" width="404" height="56" rx="18" fill="white"/>
  <rect x="600" y="444" width="110" height="12" rx="6" fill="#97B8FF"/>
  <rect x="820" y="436" width="118" height="28" rx="14" fill="#E8FFF6"/>
  <rect x="572" y="508" width="116" height="116" rx="22" fill="#E9F0FF"/>
  <rect x="708" y="508" width="116" height="116" rx="22" fill="#F1F6FF"/>
  <rect x="844" y="508" width="116" height="116" rx="22" fill="#E9FFF8"/>
  <rect x="592" y="544" width="76" height="12" rx="6" fill="#6F9CFF"/>
  <rect x="728" y="544" width="76" height="12" rx="6" fill="#B7CCFF"/>
  <rect x="864" y="544" width="76" height="12" rx="6" fill="#7BD6B4"/>
  <rect x="572" y="654" width="388" height="112" rx="24" fill="white"/>
  <rect x="600" y="686" width="120" height="14" rx="7" fill="#97B8FF"/>
  <rect x="600" y="720" width="198" height="18" rx="9" fill="#D7E4FF"/>
  <rect x="1132" y="282" width="200" height="160" rx="26" fill="white"/>
  <rect x="1160" y="314" width="86" height="14" rx="7" fill="#6E9BFF"/>
  <rect x="1160" y="346" width="130" height="16" rx="8" fill="#D8E4FF"/>
  <rect x="1160" y="384" width="102" height="16" rx="8" fill="#D8E4FF"/>
  <rect x="1132" y="476" width="200" height="250" rx="26" fill="#0F172A"/>
  <rect x="1160" y="512" width="110" height="14" rx="7" fill="white" fill-opacity="0.7"/>
  <rect x="1160" y="546" width="74" height="74" rx="20" fill="#2563FF"/>
  <path d="M1184 584L1206 606L1244 566" stroke="white" stroke-width="12" stroke-linecap="round" stroke-linejoin="round"/>
  <rect x="540" y="848" width="436" height="84" rx="24" fill="#0F172A"/>
  <rect x="572" y="880" width="96" height="14" rx="7" fill="white" fill-opacity="0.55"/>
  <rect x="572" y="906" width="190" height="18" rx="9" fill="white" fill-opacity="0.9"/>
  <defs>
    <linearGradient id="bg" x1="120" y1="64" x2="1446" y2="1126" gradientUnits="userSpaceOnUse">
      <stop stop-color="#F8FBFF"/>
      <stop offset="0.55" stop-color="#F3F8FF"/>
      <stop offset="1" stop-color="#FFFFFF"/>
    </linearGradient>
  </defs>
</svg>
