<svg width="900" height="700" viewBox="0 0 900 700" fill="none" xmlns="http://www.w3.org/2000/svg">
  <rect width="900" height="700" rx="40" fill="#F7FAFF"/>
  <rect x="92" y="90" width="716" height="520" rx="34" fill="white"/>
  <rect x="138" y="136" width="624" height="160" rx="28" fill="#F3F8FF"/>
  <rect x="174" y="176" width="124" height="86" rx="22" fill="#2563FF"/>
  <rect x="332" y="182" width="176" height="18" rx="9" fill="#88ACFF"/>
  <rect x="332" y="214" width="236" height="20" rx="10" fill="#D8E5FF"/>
  <rect x="332" y="250" width="144" height="18" rx="9" fill="#D8E5FF"/>
  <rect x="138" y="334" width="278" height="230" rx="28" fill="#EEF4FF"/>
  <rect x="452" y="334" width="310" height="230" rx="28" fill="#0F172A"/>
  <rect x="170" y="368" width="214" height="44" rx="16" fill="white"/>
  <rect x="194" y="384" width="92" height="12" rx="6" fill="#6C99FF"/>
  <rect x="170" y="432" width="96" height="96" rx="20" fill="#DDEBFF"/>
  <rect x="284" y="432" width="100" height="96" rx="20" fill="#E9F1FF"/>
  <rect x="482" y="372" width="130" height="14" rx="7" fill="white" fill-opacity="0.6"/>
  <rect x="482" y="408" width="176" height="18" rx="9" fill="white" fill-opacity="0.92"/>
  <rect x="482" y="454" width="152" height="74" rx="22" fill="#2563FF"/>
  <path d="M518 494L542 518L598 462" stroke="white" stroke-width="12" stroke-linecap="round" stroke-linejoin="round"/>
</svg>
